<?xml version="1.0" encoding="iso-8859-1"?>
<!-- Uploaded to: SVG Repo, www.svgrepo.com, Generator: SVG Repo Mixer Tools -->
<svg height="800px" width="800px" version="1.1" id="Layer_1" xmlns="http://www.w3.org/2000/svg" xmlns:xlink="http://www.w3.org/1999/xlink" 
	 viewBox="0 0 512 512" xml:space="preserve">
<path style="fill:#F4B2B0;" d="M42.383,248.269c14.654,68.381,60.128,125.323,121.18,155.589c9.11,4.516,19.181,6.751,29.348,6.751
	H335.45c10.168,0,20.239-2.235,29.348-6.751c61.051-30.266,106.525-87.208,121.18-155.589L42.383,248.269L42.383,248.269z"/>
<path style="fill:#B3404A;" d="M505.66,183.821c-1.159-0.708-24.778-14.962-51.766-17.74c-2.237-34.08-23.331-65.059-24.349-66.535
	c-3.113-4.51-8.681-6.641-14.008-5.353c-1.744,0.421-38.124,9.439-62.516,33.35c-21.966-15.923-49.071-21.049-50.407-21.293
	c-6.73-1.236-13.302,2.87-15.143,9.467c-2.357,8.453-19.646,72.379-15.736,114.287c-32.513,7.041-66.771-2.896-90.394-26.52
	c-22.866-22.866-32.92-55.699-27.157-87.263c31.567-5.766,64.396,4.291,87.263,27.157c5.171,5.17,13.557,5.17,18.729,0
	c5.171-5.171,5.171-13.557,0-18.729c-31.385-31.386-77.553-43.762-120.482-32.298c-4.579,1.222-8.155,4.799-9.378,9.377
	c-6.167,23.094-5.424,47.121,1.454,69.283l-45.289-32.331c-5.951-4.25-14.223-2.87-18.472,3.083
	c-4.25,5.953-2.87,14.223,3.084,18.472l104.761,74.789H47.145c-26.198-31.858-27.855-76.943-3.691-110.789
	c4.25-5.953,2.87-14.223-3.084-18.472c-5.951-4.25-14.223-2.87-18.472,3.083C6.352,130.625-1.355,157.301,0.196,183.962
	c1.527,26.246,11.906,51.502,29.227,71.113c0.381,0.432,0.791,0.824,1.212,1.193c7.958,33.369,23.277,65.168,44.519,92.259
	c22.057,28.127,50.595,51.363,82.527,67.193c10.727,5.32,22.909,8.131,35.231,8.131H335.45c12.322,0,24.506-2.811,35.231-8.131
	c31.933-15.83,60.471-39.066,82.527-67.193c22.351-28.504,38.16-62.213,45.719-97.483c0.838-3.911-0.136-7.991-2.65-11.101
	c-2.515-3.111-6.3-4.917-10.299-4.917h-60.376l3.433-5.309c3.971-6.142,2.212-14.34-3.93-18.311
	c-6.142-3.969-14.34-2.21-18.311,3.93l-12.73,19.689h-44.969l6.187-39.369c1.135-7.225-3.802-14.003-11.026-15.139
	c-7.229-1.14-14.003,3.802-15.139,11.026l-6.833,43.481h-23.206c-4.985-21.703,2.652-67.189,10.606-99.56
	c10.348,3.331,25.223,9.549,35.202,19.876c2.732,2.827,6.576,4.303,10.503,4.005c3.922-0.291,7.511-2.31,9.797-5.509
	c12.023-16.831,34.791-26.677,47.471-31.092c6.507,11.753,16.906,34.265,14.642,54.821c-0.43,3.909,0.899,7.808,3.628,10.639
	c2.729,2.831,6.568,4.307,10.497,4.018c23.685-1.718,49.851,13.848,50.44,14.201c6.237,3.803,14.382,1.837,18.193-4.401
	C513.868,195.785,511.9,187.633,505.66,183.821z M358.916,391.994c-7.09,3.515-15.203,5.374-23.466,5.374H192.912
	c-8.262,0-16.376-1.858-23.467-5.375c-52.981-26.264-93.181-74.291-110.004-130.48H468.92
	C452.098,317.701,411.898,365.727,358.916,391.994z"/>
</svg>